<?xml version="1.0" encoding="utf-8"?>
<!-- Generator: Adobe Illustrator 22.1.0, SVG Export Plug-In . SVG Version: 6.00 Build 0)  -->
<svg version="1.1" id="Layer_1" xmlns="http://www.w3.org/2000/svg" xmlns:xlink="http://www.w3.org/1999/xlink" x="0px" y="0px"
	 viewBox="0 0 1920 1080" style="enable-background:new 0 0 1920 1080;" xml:space="preserve">
<style type="text/css">
	.st0{fill:#FFFFFF;}
	.st1{enable-background:new    ;}
</style>
<g id="Group-2-Copy" transform="translate(141.000000, 2220.000000)">
	<g id="Group-12-Copy-2" transform="translate(0.000000, 2.949721)">
		<polygon id="Fill-62" class="st0" points="472,-1687.1 564.5,-1687.1 564.5,-1779.6 472,-1779.6 		"/>
		<polygon id="Fill-63" class="st0" points="512.4,-1710.2 539,-1710.2 539,-1700.4 500,-1700.4 500,-1763.7 512.4,-1763.7 		"/>
		<polygon id="Fill-64" class="st0" points="570.6,-1687.1 663.1,-1687.1 663.1,-1779.6 570.6,-1779.6 		"/>
		<path id="Fill-65" class="st0" d="M605.3-1728.2v18.6h11.8c2.2,0,4-0.3,5.4-0.8c1.5-0.5,2.6-1.2,3.5-2.1s1.5-1.9,1.9-3.1
			c0.4-1.2,0.6-2.4,0.6-3.7c0-1.4-0.2-2.6-0.6-3.7c-0.4-1.1-1.1-2-2-2.8c-0.9-0.8-2.1-1.4-3.5-1.8c-1.4-0.4-3.2-0.6-5.2-0.6
			L605.3-1728.2L605.3-1728.2z M605.3-1736.3h9.3c3.9,0,6.9-0.7,9-2.2c2-1.5,3.1-3.8,3.1-7c0-3.3-0.9-5.6-2.8-7
			c-1.8-1.4-4.7-2.1-8.6-2.1h-9.9L605.3-1736.3L605.3-1736.3z M593.7-1700.4v-63.3h21.5c4.1,0,7.6,0.4,10.5,1.2s5.3,1.9,7.1,3.4
			c1.9,1.5,3.2,3.2,4.1,5.3c0.9,2.1,1.3,4.4,1.3,7c0,1.5-0.2,2.9-0.6,4.3c-0.4,1.4-1.1,2.6-2,3.8c-0.9,1.2-2.1,2.3-3.5,3.2
			c-1.4,1-3.1,1.8-5,2.5c8.6,2,12.9,6.7,12.9,14.1c0,2.7-0.5,5.2-1.5,7.4c-1,2.3-2.5,4.2-4.4,5.9c-1.9,1.7-4.3,2.9-7.1,3.9
			c-2.8,0.9-6,1.4-9.7,1.4h-23.6V-1700.4z"/>
		<polygon id="Fill-66" class="st0" points="472,-1588.5 564.5,-1588.5 564.5,-1681 472,-1681 		"/>
		<path id="Fill-67" class="st0" d="M511.8-1636.9l-20.6-30.7h12c0.8,0,1.4,0.1,1.8,0.3c0.4,0.2,0.7,0.6,1,1.1l14.7,23.2
			c0.1-0.4,0.3-0.8,0.5-1.1c0.2-0.4,0.4-0.7,0.6-1.1l13.5-20.8c0.7-1.1,1.5-1.6,2.5-1.6h11.5l-20.8,30.2l21.4,33h-12
			c-0.8,0-1.5-0.2-1.9-0.6c-0.5-0.4-0.9-0.9-1.2-1.4l-15-24.2c-0.1,0.3-0.3,0.7-0.4,1c-0.2,0.3-0.3,0.6-0.4,0.9l-14.4,22.4
			c-0.3,0.5-0.7,1-1.2,1.4s-1.1,0.6-1.8,0.6h-11.3L511.8-1636.9z"/>
		<g id="Group-17" transform="translate(21.720670, 21.720670)">
			<polygon id="Fill-1" class="st0" points="548.9,-1610.2 641.4,-1610.2 641.4,-1702.7 548.9,-1702.7 			"/>
			<g id="Group-15" transform="translate(4.585475, 2.547486)">
				<path id="Fill-2" class="st0" d="M603.1-1647.4h11.2v-11.2c-2.8,3-4.6,7.6-4.6,7.6s-2.6-0.5-5.7-2.2l-0.5-0.3
					c0.1,0.5,0.2,1.4,0.2,2.6C603.7-1649.4,603.3-1648,603.1-1647.4"/>
				<path id="Fill-4" class="st0" d="M593.8-1631.8c3.5,0,6.8,1.8,8.7,4.8l0.1,0.2h12.9l-0.2-0.6c0-0.1-1-3-4.5-3.6
					c-10-2.2-12.9-9.7-13.7-12.8v-0.2l0.1-0.1c1.9-1.8,3.1-4.4,3.1-7c0-5.2-4.2-9.5-9.4-9.5s-9.4,4.2-9.4,9.5c0,3.3,1.7,6.4,4.6,8.1
					c1.3,0.7,1.9,1.3,2.2,1.7l0.2,0.2c1.3,1.6,1.9,3.3,1.9,5.2c0,1.3-0.4,2.8-0.9,3.7c-0.3,0.7,0.2,1.1,0.8,0.9
					C591.5-1631.6,592.6-1631.8,593.8-1631.8"/>
				<path id="Fill-6" class="st0" d="M572.8-1626.9h14.9l-0.3-0.8c-0.7-1.8-2.7-3.8-5.7-3.8c-1.5,0-4.2-1.5-4.2-4.5
					c0-2.4,1.9-4.4,4.3-4.5l1.5-0.1c-0.8-0.6-2.2-1.8-3.4-3.7c-1.1-1.7-1.5-3.5-1.7-4.5l-9.9,13.9c-0.4,0.5-0.1,0.8,0.3,1
					c2.6,1.2,4.2,3.7,4.2,6.5L572.8-1626.9z"/>
				<path id="Fill-8" class="st0" d="M600.5-1659.5h13.8v-11.4c-2.4,2.7-4.4,7.2-4.4,7.2s-4.9-1.1-8.2-3.9
					c-2.7-2.2-5.9-6.2-6.1-12.6v-0.3c-0.1-6.1-5.2-11-11.3-11h-18.6c0,0.6,0.7,1.2,1.4,1.2c6.3,0.1,11.3,5.2,11.3,11.4
					c0,0.9-0.2,2.1-0.3,2.6s0.3,0.8,0.7,0.8c6.3,0.1,11.2,4.9,11.4,11.1c0,0.3,0.3,0.6,0.6,0.6c1,0,2.9,0.1,4.7,0.8
					C598.2-1661.9,600.1-1659.9,600.5-1659.5"/>
				<path id="Fill-10" class="st0" d="M606.9-1684.1c-1.2,0.4-2.4,1.1-2.4,1.1s-0.4-0.7-0.4-1.9c0-1.2,0.4-1.8,0.4-1.8
					s0.7,0.3,1.6,0.6c0,0.1-0.1,0.2-0.1,0.4c0,0.4,0.3,0.7,0.7,0.7c0.3,0,0.6-0.3,0.7-0.6c1.2,0.4,2.5,0.8,2.5,0.8
					C609.7-1684.7,608.1-1684.5,606.9-1684.1 M597-1687.4c1.8,3.6,1.7,5.3,1.8,6.9c0.2,6.1,4.5,11.7,10.3,13.4c0,0,0.2-1,0.2-1.7
					c0-2.1-0.8-4.1-2.1-5.6l-0.1-0.1c-0.1-0.1-0.4-0.6-0.4-1.2c0-1.1,0.9-2,2-2c0.7,0,1.4,0.4,1.8,1.1c0.4-0.3,1-1.1,1-1.7
					c-1.4,0-2.5-1.1-2.5-2.5s1.1-2.5,2.5-2.5c0.7,0,1.4,0.3,1.8,0.8c-0.4-1.4-1.4-2.5-2.9-3c-3.7-1.3-5.2-2.9-6.2-5
					c-0.5-1-1-1.8-1.3-2.3C602.5-1690.1,600.1-1687.7,597-1687.4"/>
			</g>
		</g>
	</g>
	<g class="st1">
		<path class="st0" d="M786.5-1654.5v43.8h-30.4v-131.1h46.3c9.2,0,17.2,1.1,23.8,3.3c6.6,2.2,12.1,5.2,16.4,9
			c4.3,3.8,7.5,8.4,9.5,13.6c2,5.2,3.1,10.9,3.1,16.9c0,6.5-1.1,12.5-3.2,18c-2.1,5.5-5.3,10.1-9.6,14c-4.3,3.9-9.8,6.9-16.4,9.1
			c-6.6,2.2-14.5,3.3-23.5,3.3H786.5z M786.5-1677.4h15.8c7.9,0,13.6-1.9,17.1-5.7c3.5-3.8,5.2-9.1,5.2-15.8c0-3-0.5-5.7-1.3-8.2
			c-0.9-2.5-2.3-4.6-4.1-6.3c-1.8-1.8-4.1-3.1-6.9-4.1c-2.8-1-6.1-1.4-9.9-1.4h-15.8V-1677.4z"/>
		<path class="st0" d="M1022.6-1610.6h-23.6c-2.6,0-4.8-0.6-6.5-1.8c-1.7-1.2-2.9-2.8-3.6-4.7l-7.7-22.9h-49.9l-7.7,22.9
			c-0.6,1.7-1.8,3.2-3.5,4.5c-1.7,1.4-3.9,2-6.4,2H890l50.8-131.1h31.1L1022.6-1610.6z M938.4-1660.8h35.8l-12.1-35.9
			c-0.8-2.3-1.7-5-2.7-8.1c-1.1-3.1-2.1-6.4-3.1-10c-1,3.7-2,7.1-3,10.2c-1,3.1-2,5.8-2.9,8.1L938.4-1660.8z"/>
		<path class="st0" d="M1125.6-1660.5v49.9h-30.4v-49.9l-47.5-81.3h26.8c2.6,0,4.7,0.6,6.3,1.8c1.6,1.2,2.8,2.8,3.8,4.7l18.5,38.2
			c1.5,3.1,2.9,5.9,4.1,8.5c1.3,2.6,2.4,5.1,3.3,7.6c0.9-2.6,2-5.2,3.2-7.7c1.3-2.6,2.6-5.4,4.1-8.4l18.4-38.2
			c0.4-0.8,0.9-1.6,1.5-2.3c0.6-0.8,1.3-1.5,2.2-2.1c0.8-0.6,1.7-1.1,2.8-1.5c1-0.4,2.2-0.6,3.5-0.6h27L1125.6-1660.5z"/>
	</g>
</g>
</svg>
