<?xml version="1.0" standalone="no"?>
<!DOCTYPE svg PUBLIC "-//W3C//DTD SVG 20010904//EN"
 "http://www.w3.org/TR/2001/REC-SVG-20010904/DTD/svg10.dtd">
<svg version="1.0" xmlns="http://www.w3.org/2000/svg"
 width="1040.000000pt" height="1040.000000pt" viewBox="0 0 1040.000000 1040.000000"
 preserveAspectRatio="xMidYMid meet">
<metadata>
Created by potrace 1.11, written by Peter Selinger 2001-2013
</metadata>
<g transform="translate(0.000000,1040.000000) scale(0.100000,-0.100000)"
fill="#000000" stroke="none">
<path d="M0 7885 l0 -2515 2520 0 2520 0 0 2515 0 2515 -2520 0 -2520 0 0
-2515z m2200 200 l0 -1455 725 0 725 0 0 -270 0 -270 -1065 0 -1065 0 0 1725
0 1725 340 0 340 0 0 -1455z"/>
<path d="M5370 7885 l0 -2515 2515 0 2515 0 0 2515 0 2515 -2515 0 -2515 0 0
-2515z m2809 1631 c300 -51 495 -139 647 -291 125 -124 189 -268 215 -480 47
-380 -131 -677 -504 -839 l-74 -32 91 -28 c247 -75 432 -216 517 -393 94 -197
94 -508 0 -734 -65 -155 -199 -317 -344 -412 -84 -56 -228 -122 -332 -152
-202 -58 -206 -58 -1022 -62 l-753 -4 0 1726 0 1726 733 -4 c616 -4 747 -7
826 -21z"/>
<path d="M7260 8545 l0 -497 348 5 c313 4 355 6 429 25 259 67 373 211 373
469 0 161 -36 269 -115 348 -52 53 -117 85 -231 117 -72 19 -109 22 -441 26
l-363 4 0 -497z"/>
<path d="M7260 7100 l0 -500 380 0 c433 0 481 5 616 70 180 87 261 239 252
474 -5 129 -27 198 -88 274 -69 87 -198 149 -356 172 -42 5 -239 10 -440 10
l-364 0 0 -500z"/>
<path d="M0 2515 l0 -2515 2520 0 2520 0 0 2515 0 2515 -2520 0 -2520 0 0
-2515z m1806 1770 c15 -12 210 -310 433 -663 223 -353 408 -642 411 -642 3 0
12 17 21 38 20 47 763 1197 798 1235 52 57 52 57 411 57 181 0 330 -2 330 -5
0 -3 -254 -374 -565 -825 l-564 -820 575 -887 c317 -489 578 -894 581 -900 4
-10 -68 -13 -341 -13 -381 0 -386 1 -443 61 -23 25 -777 1230 -843 1348 -6 12
-11 7 -23 -19 -21 -52 -815 -1289 -851 -1328 -58 -63 -54 -62 -412 -62 -257 0
-325 3 -321 13 2 6 264 405 581 884 317 480 576 875 576 878 0 2 -197 298
-438 657 -241 359 -493 735 -561 836 l-122 183 370 -3 c354 -3 371 -4 397 -23z"/>
<path d="M5370 2515 l0 -2515 2515 0 2515 0 0 2515 0 2515 -2515 0 -2515 0 0
-2515z m3245 1755 c26 -46 59 -100 74 -119 40 -54 131 -115 223 -151 107 -42
153 -74 184 -125 33 -57 31 -69 -8 -45 -88 53 -198 -11 -198 -116 0 -57 34
-105 88 -124 50 -17 53 -35 16 -80 l-27 -31 -29 28 c-43 41 -100 39 -139 -5
-42 -47 -40 -93 9 -159 85 -112 119 -237 96 -352 -8 -37 -8 -37 -78 -10 -125
46 -273 167 -356 290 -90 131 -127 246 -141 439 -8 102 -16 143 -45 225 -19
55 -38 107 -40 116 -4 13 3 18 32 24 120 22 225 120 260 243 9 30 20 50 24 45
5 -4 30 -46 55 -93z m-926 5 c160 -38 331 -176 403 -325 45 -95 56 -140 68
-295 35 -429 278 -722 706 -855 37 -11 68 -19 69 -18 2 2 23 44 48 93 46 93
154 262 182 285 14 11 15 -18 13 -301 l-3 -314 -373 -3 -374 -2 -56 51 c-118
106 -240 160 -412 182 l-95 12 -7 35 c-4 19 -12 64 -18 100 -25 143 -131 302
-256 385 -76 51 -200 94 -290 102 -43 3 -79 12 -85 19 -8 10 -8 35 0 95 38
256 -106 523 -344 636 -74 35 -182 62 -250 63 -44 1 -65 13 -84 48 l-12 22
553 0 c458 0 564 -3 617 -15z m346 -1690 c282 -74 449 -386 354 -664 -24 -68
-61 -132 -106 -182 -41 -46 -41 -56 7 -176 82 -204 239 -372 445 -475 67 -34
221 -88 250 -88 8 0 39 -9 69 -21 64 -23 134 -87 165 -147 39 -77 62 -72 -328
-72 l-349 0 -41 55 c-135 179 -367 258 -589 200 -99 -26 -104 -19 -69 85 58
170 23 340 -94 459 -19 19 -64 54 -101 77 -243 156 -324 431 -201 682 105 214
354 327 588 267z m1143 -397 l-3 -303 -304 -3 -303 -2 8 47 c5 27 9 103 9 169
l0 122 75 -38 c59 -30 238 -100 255 -100 2 0 25 42 50 94 64 131 185 316 207
316 5 0 7 -136 6 -302z m-1931 -331 c31 -96 103 -206 182 -280 33 -30 57 -58
54 -61 -4 -3 -26 -6 -51 -6 -75 0 -123 -20 -178 -75 -159 -158 -42 -415 190
-415 53 0 152 -47 200 -94 34 -34 86 -122 86 -146 0 -7 -133 -10 -404 -10
l-404 0 -10 70 c-19 130 -85 232 -190 293 -39 23 -57 40 -56 53 0 30 548 793
552 769 2 -11 15 -55 29 -98z"/>
<path d="M8636 4002 c-13 -22 -17 -92 -7 -130 7 -23 14 -42 17 -42 2 0 31 14
64 30 33 17 87 37 121 44 34 8 63 16 65 19 2 2 -19 11 -47 19 -43 14 -51 14
-56 2 -12 -32 -73 -9 -73 27 0 23 -72 50 -84 31z"/>
</g>
</svg>
